<svg version="1.1" xmlns="http://www.w3.org/2000/svg" style="display: block;" viewBox="0 0 2048 2048" width="1024" height="1024" preserveAspectRatio="none">
<path transform="translate(0,0)" fill="rgb(255,255,255)" d="M 0 0 L 2048 0 L 2048 2048 L 0 2048 L 0 0 z"/>
<path transform="translate(0,0)" fill="rgb(35,141,202)" d="M 1005.78 730.426 C 1069.79 725.309 1140.31 748.593 1192.06 785.789 C 1255.38 831.09 1297.77 899.988 1309.68 976.926 C 1319.32 1037.85 1309.84 1101.76 1281.51 1156.76 C 1272.57 1174.11 1261.55 1189.86 1250.14 1205.63 L 1289.14 1205.38 C 1289.51 1242.55 1289.55 1279.73 1289.26 1316.9 L 1199.12 1316.96 C 1165.11 1282 1130.81 1247.33 1096.22 1212.94 C 1082.31 1199.13 1056.23 1171.91 1042.07 1160.74 C 1054.49 1160.86 1066.01 1161.73 1078.38 1162.8 C 1113.94 1165.87 1132.14 1141.9 1117.23 1109.22 C 1122.56 1103.75 1124.53 1101.68 1128.85 1095.42 C 1140.96 1107.46 1153.12 1120.98 1165.37 1133.39 C 1177.77 1115.24 1187.25 1097.8 1193.47 1076.67 C 1207.26 1029.59 1201.78 978.96 1178.22 935.924 C 1133.73 855.504 1032.2 820.119 947.807 856.664 C 939.552 860.238 932.101 864.353 924.263 868.705 L 915.954 874.033 C 897.177 845.735 879.597 853.397 851.028 851.817 C 827.808 850.532 807.239 862.393 807.805 887.69 C 807.93 897.425 812.042 906.683 819.18 913.304 C 830.513 923.709 841.445 923.408 855.356 923.015 L 859.135 936.578 C 839.602 971.86 832.311 1005.9 837.287 1046.29 C 842.835 1092.96 866.795 1135.49 903.843 1164.41 C 947.335 1198.09 995.885 1209.02 1049.94 1201.96 C 1057.55 1210.64 1069.83 1222.27 1078.19 1230.66 L 1138.77 1291.52 C 1108.53 1305.72 1075.87 1314.04 1042.52 1316.04 C 962.95 1321.94 884.312 1295.89 824.011 1243.65 C 765.762 1193 729.949 1121.34 724.411 1044.35 C 714.248 883.75 829.282 746.502 990.873 731.49 C 995.827 731.03 1000.81 730.745 1005.78 730.426 z"/>
<path transform="translate(0,0)" fill="rgb(91,189,231)" d="M 1148.25 730.308 C 1167.6 729.45 1191.85 730.061 1211.4 730.118 L 1317.8 730.269 L 1423.76 730.27 C 1495.62 730.288 1546.68 727.034 1599.9 786.125 C 1659.42 852.219 1659.52 961.374 1591.16 1021.14 C 1628.29 1054.68 1646.88 1095.27 1647.2 1145.63 C 1647.8 1191.31 1629.84 1235.28 1597.42 1267.47 C 1544.66 1320.43 1491.63 1316.92 1423.53 1316.92 L 1314.4 1316.98 L 1314.32 1279.75 C 1314.4 1254.94 1314.36 1230.13 1314.19 1205.32 L 1423.08 1205.28 C 1437.71 1205.32 1474.5 1206.42 1487.36 1203.6 C 1498.38 1201.14 1508.52 1195.73 1516.7 1187.96 C 1550.34 1155.52 1533.35 1090.22 1485.92 1081.85 C 1466.68 1078.46 1443.75 1079.93 1424.11 1080 L 1335.52 1079.99 C 1341.98 1036.68 1342.46 1010.86 1336.04 967.573 C 1367.07 967.218 1398.11 967.125 1429.15 967.296 C 1443.23 967.305 1470.92 968.17 1483.37 965.472 C 1494.25 963.119 1504.3 957.909 1512.5 950.378 C 1537.07 927.515 1537.83 884.599 1514.4 860.567 C 1495.49 841.174 1479.19 842.724 1454.45 842.64 C 1397.37 842.444 1340.17 843.257 1283.1 842.578 C 1252.67 792.002 1200.54 755.522 1148.25 730.308 z"/>
<path transform="translate(0,0)" fill="rgb(42,55,141)" d="M 400.945 730.31 L 517.006 730.271 L 516.991 1203.31 L 754.397 1202.97 C 777.691 1242.05 816.93 1275.01 855.825 1298.46 C 862.122 1302.26 886.853 1313.64 890.292 1316.84 C 835.221 1318.04 775.146 1316.91 719.661 1316.87 L 401.013 1316.71 L 400.945 730.31 z"/>
<path transform="translate(0,0)" fill="rgb(91,189,231)" d="M 839.377 875.214 C 892.081 874.557 890.781 866.599 905.032 917.789 C 953.063 916.041 1008.07 917.275 1056.77 917.283 L 1109.98 917.199 C 1127 917.146 1165.36 911.227 1155.21 940.934 C 1146.64 966.025 1140.59 991.37 1132.38 1016.49 C 1130.7 1021.65 1128.06 1025.25 1124.35 1029.09 C 1110.25 1033.99 1084.94 1036.49 1069.61 1038.82 C 1028.53 1044.75 987.497 1051.03 946.524 1057.67 L 949.287 1067.7 L 950.206 1069.05 C 958.096 1073.64 1089 1068.13 1107.79 1070.58 C 1112.12 1071.14 1114.79 1071.23 1117.68 1075.29 C 1125.88 1086.8 1116.05 1097.18 1103.36 1096.01 C 1051.46 1096.02 999.984 1095.99 948.122 1096.19 C 944.749 1096.21 938.426 1095.25 935.097 1093.78 C 922.148 1083.05 915.279 1046.73 910.736 1030.95 L 886.795 949.042 C 882.231 933.523 877.643 916.084 872.36 901.005 C 861.622 900.454 839.612 903.889 833.048 895.332 C 827.286 887.82 832.662 879.508 839.377 875.214 z"/>
<path transform="translate(0,0)" fill="rgb(91,189,231)" d="M 1079 1104.41 C 1092.64 1101.23 1106.27 1109.71 1109.44 1123.35 C 1112.61 1136.99 1104.12 1150.62 1090.48 1153.78 C 1076.85 1156.93 1063.25 1148.45 1060.08 1134.83 C 1056.91 1121.21 1065.38 1107.59 1079 1104.41 z"/>
<path transform="translate(0,0)" fill="rgb(35,141,202)" d="M 960.294 1104.73 C 973.838 1101.69 987.288 1110.18 990.366 1123.72 C 993.445 1137.25 984.991 1150.73 971.465 1153.84 C 957.885 1156.97 944.345 1148.48 941.255 1134.89 C 938.164 1121.3 946.697 1107.79 960.294 1104.73 z"/>
</svg>